<?xml version="1.0" encoding="UTF-8" standalone="no"?>
<!DOCTYPE svg PUBLIC "-//W3C//DTD SVG 1.1//EN" "http://www.w3.org/Graphics/SVG/1.1/DTD/svg11.dtd">
<svg width="100%" height="100%" viewBox="0 0 512 512" version="1.1" xmlns="http://www.w3.org/2000/svg" xmlns:xlink="http://www.w3.org/1999/xlink" xml:space="preserve" xmlns:serif="http://www.serif.com/" style="fill-rule:evenodd;clip-rule:evenodd;stroke-linejoin:round;stroke-miterlimit:1.41421;">
    <g id="arrow_down" transform="matrix(0.4,0,0,0.64,0,0)">
        <rect x="0" y="0" width="1280" height="800" style="fill:none;"/>
        <g transform="matrix(-0.585445,-0.365903,0.936712,-0.585445,641.83,783.791)">
            <g transform="matrix(2.5,0,0,1.5625,0,0)">
                <path d="M426,127.5C426,105.699 408.301,88 386.5,88L128.5,88C106.699,88 89,105.699 89,127.5C89,149.301 106.699,167 128.5,167L386.5,167C408.301,167 426,149.301 426,127.5Z" style="fill:rgb(58,58,58);"/>
            </g>
            <g transform="matrix(1.53081e-16,-1.5625,2.5,9.56755e-17,2.5,802.344)">
                <path d="M426,127.5C426,105.699 408.301,88 386.5,88L128.5,88C106.699,88 89,105.699 89,127.5C89,149.301 106.699,167 128.5,167L386.5,167C408.301,167 426,149.301 426,127.5Z" style="fill:rgb(58,58,58);"/>
            </g>
        </g>
    </g>
</svg>
