<?xml version="1.0" encoding="UTF-8" standalone="no"?>
<!DOCTYPE svg PUBLIC "-//W3C//DTD SVG 1.1//EN" "http://www.w3.org/Graphics/SVG/1.1/DTD/svg11.dtd">
<svg width="100%" height="100%" viewBox="0 0 512 512" version="1.1" xmlns="http://www.w3.org/2000/svg" xmlns:xlink="http://www.w3.org/1999/xlink" xml:space="preserve" xmlns:serif="http://www.serif.com/" style="fill-rule:evenodd;clip-rule:evenodd;stroke-linejoin:round;stroke-miterlimit:1.41421;">
    <g transform="matrix(1,0,0,1,-562,0)">
        <rect id="duedate" x="562" y="0" width="512" height="512" style="fill:none;"/>
        <g id="duedate1" serif:id="duedate">
            <g>
                <g transform="matrix(1,0,0,1,8,5)">
                    <path d="M938.464,36.502C974.139,36.841 1007.99,60.742 1019.77,94.825C1022.84,103.725 1024.41,113.135 1024.5,122.536C1024.78,208.005 1024.5,293.474 1024.5,378.943C1024.41,407.937 1008.86,436.479 984.149,452.117C970.561,460.716 954.545,465.345 938.464,465.498C852.995,465.769 767.526,465.5 682.058,465.5C646.722,465.388 612.428,441.774 600.407,407.678C597.216,398.627 595.592,389.027 595.502,379.464C595.225,293.995 595.5,208.526 595.5,123.057C595.614,87.737 619.263,53.413 653.323,41.406C662.367,38.218 671.969,36.593 681.536,36.502C767.178,36.23 852.822,36.23 938.464,36.502ZM682.129,81.5C660.523,81.568 640.716,100.015 640.501,122.822C640.224,208.273 640.224,293.727 640.501,379.178C640.704,400.646 659.288,420.285 681.822,420.499C767.274,420.77 852.726,420.77 938.178,420.499C959.71,420.294 979.286,401.715 979.499,379.178C979.776,293.727 979.776,208.273 979.499,122.822C979.297,101.42 961.036,81.719 938.178,81.501C852.829,81.231 767.479,81.5 682.129,81.5Z" style="fill:rgb(58,58,58);"/>
                </g>
                <g transform="matrix(1,0,0,1,0,-24.75)">
                    <path d="M945.907,179.5C945.907,164.322 933.584,152 918.407,152L717.593,152C702.416,152 690.093,164.322 690.093,179.5C690.093,194.678 702.416,207 717.593,207L918.407,207C933.584,207 945.907,194.678 945.907,179.5Z" style="fill:rgb(58,58,58);"/>
                </g>
                <g transform="matrix(1,0,0,1,0,-2.25)">
                    <g transform="matrix(0.772152,0,0,0.772152,141.865,15.4968)">
                        <circle cx="749.5" cy="310.5" r="39.5" style="fill:rgb(58,58,58);"/>
                    </g>
                    <g transform="matrix(0.772152,0,0,0.772152,239.272,15.4968)">
                        <circle cx="749.5" cy="310.5" r="39.5" style="fill:rgb(58,58,58);"/>
                    </g>
                    <g transform="matrix(0.772152,0,0,0.772152,336.679,15.4968)">
                        <circle cx="749.5" cy="310.5" r="39.5" style="fill:rgb(58,58,58);"/>
                    </g>
                </g>
                <g transform="matrix(1,0,0,1,0,7)">
                    <g transform="matrix(0.772152,0,0,0.772152,141.865,107.497)">
                        <circle cx="749.5" cy="310.5" r="39.5" style="fill:rgb(58,58,58);"/>
                    </g>
                    <g transform="matrix(0.772152,0,0,0.772152,239.272,107.497)">
                        <circle cx="749.5" cy="310.5" r="39.5" style="fill:rgb(58,58,58);"/>
                    </g>
                    <g transform="matrix(0.772152,0,0,0.772152,336.679,107.497)">
                        <circle cx="749.5" cy="310.5" r="39.5" style="fill:rgb(58,58,58);"/>
                    </g>
                </g>
            </g>
        </g>
    </g>
</svg>
