<?xml version="1.0" encoding="UTF-8" standalone="no"?>
<!DOCTYPE svg PUBLIC "-//W3C//DTD SVG 1.1//EN" "http://www.w3.org/Graphics/SVG/1.1/DTD/svg11.dtd">
<svg width="100%" height="100%" viewBox="0 0 512 512" version="1.1" xmlns="http://www.w3.org/2000/svg" xmlns:xlink="http://www.w3.org/1999/xlink" xml:space="preserve" xmlns:serif="http://www.serif.com/" style="fill-rule:evenodd;clip-rule:evenodd;stroke-linejoin:round;stroke-miterlimit:1.41421;">
    <g transform="matrix(1,0,0,1,-2248,0)">
        <rect id="priority" x="2248" y="0" width="512" height="512" style="fill:none;"/>
        <g id="priority1" serif:id="priority">
            <g>
                <g transform="matrix(1.02433,0,0,1.02433,-97.0805,-5.87203)">
                    <path d="M2540,36.37C2606.87,36.688 2673.52,69.401 2714.58,123.939C2755.32,178.057 2769.03,251.124 2749.87,316.949C2731.67,379.498 2684.09,432.948 2623.4,458.197C2570.35,480.264 2508.4,480.332 2455.19,458.197C2385.24,429.096 2332.49,361.824 2322.04,285.597C2312.78,217.929 2337.03,146.441 2386.61,98.316C2425.94,60.134 2480.26,37.452 2535.05,36.409C2536.7,36.378 2538.35,36.368 2540,36.37ZM2538.72,80.301C2484.85,80.557 2431.86,106.854 2399.1,150.362C2361.02,200.939 2352.99,272.562 2381,331.148C2404.45,380.177 2451.91,417.293 2505.56,427.759C2560.22,438.421 2619.6,421.313 2660.24,382.559C2694.42,349.97 2714.64,303.269 2714.64,255.651C2714.64,198.769 2685.21,142.643 2637.28,110.251C2608.9,91.069 2574.78,80.576 2540.43,80.304C2539.86,80.301 2539.29,80.3 2538.72,80.301Z" style="fill:rgb(58,58,58);"/>
                </g>
                <g transform="matrix(0.829286,0,0,0.829286,431.324,53.9825)">
                    <circle cx="2499.57" cy="365.975" r="36.159" style="fill:rgb(58,58,58);"/>
                </g>
                <g transform="matrix(0.864523,0,0,0.938628,347.21,6.67821)">
                    <path d="M2529.67,157.508C2529.67,139.876 2514.13,125.561 2494.99,125.561C2475.85,125.561 2460.3,139.876 2460.3,157.508L2460.3,286.739C2460.3,304.37 2475.85,318.685 2494.99,318.685C2514.13,318.685 2529.67,304.37 2529.67,286.739L2529.67,157.508Z" style="fill:rgb(58,58,58);"/>
                </g>
            </g>
        </g>
    </g>
</svg>
