<?xml version="1.0" encoding="UTF-8" standalone="no"?>
<!DOCTYPE svg PUBLIC "-//W3C//DTD SVG 1.1//EN" "http://www.w3.org/Graphics/SVG/1.1/DTD/svg11.dtd">
<svg width="100%" height="100%" viewBox="0 0 512 512" version="1.1" xmlns="http://www.w3.org/2000/svg" xmlns:xlink="http://www.w3.org/1999/xlink" xml:space="preserve" xmlns:serif="http://www.serif.com/" style="fill-rule:evenodd;clip-rule:evenodd;stroke-linejoin:round;stroke-miterlimit:1.41421;">
    <g transform="matrix(1,0,0,1,-1124,0)">
        <rect id="trashbin" x="1124" y="0" width="512" height="512" style="fill:none;"/>
        <g id="trashbin1" serif:id="trashbin">
            <g transform="matrix(1,0,0,1,0,10.583)">
                <g transform="matrix(0.8,0,0,0.927794,293.6,51.7916)">
                    <path d="M1563.49,17.513C1568.15,18.732 1569.52,18.767 1573.62,21.134C1579.77,24.673 1584.14,30.32 1585.59,36.567C1585.94,38.121 1585.94,39.721 1586.12,41.298C1586.12,144.361 1586.69,247.424 1586.12,350.486C1585.72,393.53 1553.98,435.013 1507.15,451.813C1491.76,457.335 1475.12,460.182 1458.41,460.251C1391.33,460.346 1324.25,460.522 1257.18,460.249C1207.09,459.907 1158.7,432.298 1139.36,391.533C1133.15,378.435 1129.95,364.315 1129.88,350.127L1129.88,349.791L1129.88,41.298L1130.41,36.567C1131.83,32.549 1131.87,31.367 1134.62,27.825C1138.72,22.529 1145.27,18.756 1152.51,17.513C1154.32,17.204 1156.17,17.202 1158,17.047L1558,17.047C1559.83,17.202 1561.66,17.358 1563.49,17.513ZM1186.12,65.549C1186.12,160.491 1185.24,255.436 1186.13,350.374C1186.43,373.16 1202.64,395.415 1226.49,405.483C1236.19,409.579 1246.96,411.705 1257.77,411.749C1324.75,411.844 1391.73,412.203 1458.7,411.746C1495.45,411.394 1529.69,384.405 1529.88,349.978L1529.88,349.757L1529.88,65.549L1186.12,65.549Z" style="fill:rgb(243,45,62);"/>
                </g>
                <g>
                    <g transform="matrix(1,0,0,1.2726,20,-92.6634)">
                        <path d="M1331,226.038C1331,214.979 1319.57,206 1305.5,206C1291.43,206 1280,214.979 1280,226.038L1280,348.962C1280,360.021 1291.43,369 1305.5,369C1319.57,369 1331,360.021 1331,348.962L1331,226.038Z" style="fill:rgb(243,45,62);"/>
                    </g>
                    <g transform="matrix(1,0,0,1.2726,129,-92.6634)">
                        <path d="M1331,226.038C1331,214.979 1319.57,206 1305.5,206C1291.43,206 1280,214.979 1280,226.038L1280,348.962C1280,360.021 1291.43,369 1305.5,369C1319.57,369 1331,360.021 1331,348.962L1331,226.038Z" style="fill:rgb(243,45,62);"/>
                    </g>
                </g>
                <g transform="matrix(1,0,0,1,4.54747e-13,-9)">
                    <g transform="matrix(1.95098,0,0,0.636299,-1167,-110.187)">
                        <path d="M1331,284.186C1331,241.034 1319.57,206 1305.5,206C1291.43,206 1280,241.034 1280,284.186L1280,290.814C1280,333.966 1291.43,369 1305.5,369C1319.57,369 1331,333.966 1331,290.814L1331,284.186Z" style="fill:rgb(243,45,62);"/>
                    </g>
                    <g transform="matrix(6.12323e-17,1,-2.81248,1.72214e-16,2188.59,-1206.39)">
                        <path d="M1331,215.067C1331,210.063 1319.57,206 1305.5,206C1291.43,206 1280,210.063 1280,215.067L1280,359.933C1280,364.937 1291.43,369 1305.5,369C1319.57,369 1331,364.937 1331,359.933L1331,215.067Z" style="fill:rgb(243,45,62);"/>
                    </g>
                </g>
            </g>
        </g>
    </g>
</svg>
